<?xml version="1.0" encoding="UTF-8" standalone="no"?>
<!DOCTYPE svg PUBLIC "-//W3C//DTD SVG 1.1//EN"
 "http://www.w3.org/Graphics/SVG/1.1/DTD/svg11.dtd">
<!-- Generated by graphviz version 8.1.0 (20230707.0739)
 -->
<!-- Title: ConceptualModel Pages: 1 -->
<svg width="710pt" height="242pt"
 viewBox="0.00 0.00 710.17 242.15" xmlns="http://www.w3.org/2000/svg" xmlns:xlink="http://www.w3.org/1999/xlink">
<g id="graph0" class="graph" transform="scale(1 1) rotate(0) translate(4 238.15)">
<title>ConceptualModel</title>
<polygon fill="white" stroke="none" points="-4,4 -4,-238.15 706.17,-238.15 706.17,4 -4,4"/>
<!-- STUDENTS -->
<g id="node1" class="node">
<title>STUDENTS</title>
<polygon fill="none" stroke="black" points="145.47,-114.06 57.47,-114.06 57.47,-78.06 145.47,-78.06 145.47,-114.06"/>
<text text-anchor="middle" x="101.47" y="-90.64" font-family="Times New Roman,serif" font-size="14.00">STUDENTS</text>
</g>
<!-- STUDENTS_SID -->
<g id="node6" class="node">
<title>STUDENTS_SID</title>
<ellipse fill="none" stroke="black" cx="25.1" cy="-97.86" rx="25.1" ry="13.61"/>
<text text-anchor="start" x="15.35" y="-94.98" font-family="Times New Roman,serif" font-size="10.00"> </text>
<text text-anchor="start" x="17.6" y="-94.98" font-family="Times New Roman,serif" text-decoration="underline" font-size="10.00">SID</text>
<text text-anchor="start" x="32.6" y="-94.98" font-family="Times New Roman,serif" font-size="10.00"> </text>
</g>
<!-- STUDENTS&#45;&#45;STUDENTS_SID -->
<g id="edge1" class="edge">
<title>STUDENTS&#45;&#45;STUDENTS_SID</title>
<path fill="none" stroke="black" d="M57.05,-97.11C54.82,-97.16 52.61,-97.21 50.47,-97.26"/>
</g>
<!-- STUDENTS_Name -->
<g id="node7" class="node">
<title>STUDENTS_Name</title>
<ellipse fill="none" stroke="black" cx="64.45" cy="-173.74" rx="30.41" ry="13.61"/>
<text text-anchor="start" x="50.95" y="-169.87" font-family="Times New Roman,serif" font-size="10.00"> Name </text>
</g>
<!-- STUDENTS&#45;&#45;STUDENTS_Name -->
<g id="edge2" class="edge">
<title>STUDENTS&#45;&#45;STUDENTS_Name</title>
<path fill="none" stroke="black" d="M92.7,-114.47C86.03,-128.47 77,-147.42 70.96,-160.08"/>
</g>
<!-- STUDENTS_Semester -->
<g id="node8" class="node">
<title>STUDENTS_Semester</title>
<ellipse fill="none" stroke="black" cx="63.82" cy="-19.21" rx="39.95" ry="13.61"/>
<text text-anchor="start" x="43.57" y="-15.34" font-family="Times New Roman,serif" font-size="10.00"> Semester </text>
</g>
<!-- STUDENTS&#45;&#45;STUDENTS_Semester -->
<g id="edge3" class="edge">
<title>STUDENTS&#45;&#45;STUDENTS_Semester</title>
<path fill="none" stroke="black" d="M92.55,-77.85C85.77,-64 76.58,-45.26 70.44,-32.73"/>
</g>
<!-- COURSES -->
<g id="node2" class="node">
<title>COURSES</title>
<polygon fill="none" stroke="black" points="310.06,-112.49 229.56,-112.49 229.56,-76.49 310.06,-76.49 310.06,-112.49"/>
<text text-anchor="middle" x="269.81" y="-89.06" font-family="Times New Roman,serif" font-size="14.00">COURSES</text>
</g>
<!-- COURSES_CID -->
<g id="node9" class="node">
<title>COURSES_CID</title>
<ellipse fill="none" stroke="black" cx="242.19" cy="-17.46" rx="25.63" ry="13.61"/>
<text text-anchor="start" x="232.07" y="-14.59" font-family="Times New Roman,serif" font-size="10.00"> </text>
<text text-anchor="start" x="234.32" y="-14.59" font-family="Times New Roman,serif" text-decoration="underline" font-size="10.00">CID</text>
<text text-anchor="start" x="250.07" y="-14.59" font-family="Times New Roman,serif" font-size="10.00"> </text>
</g>
<!-- COURSES&#45;&#45;COURSES_CID -->
<g id="edge4" class="edge">
<title>COURSES&#45;&#45;COURSES_CID</title>
<path fill="none" stroke="black" d="M263.27,-76.23C258.29,-62.35 251.55,-43.57 247.05,-31.01"/>
</g>
<!-- COURSES_Title -->
<g id="node10" class="node">
<title>COURSES_Title</title>
<ellipse fill="none" stroke="black" cx="290.52" cy="-13.61" rx="27.22" ry="13.61"/>
<text text-anchor="start" x="279.27" y="-9.74" font-family="Times New Roman,serif" font-size="10.00"> Title </text>
</g>
<!-- COURSES&#45;&#45;COURSES_Title -->
<g id="edge5" class="edge">
<title>COURSES&#45;&#45;COURSES_Title</title>
<path fill="none" stroke="black" d="M274.51,-76.14C278.3,-61.32 283.56,-40.79 287,-27.36"/>
</g>
<!-- COURSES_ECTS -->
<g id="node11" class="node">
<title>COURSES_ECTS</title>
<ellipse fill="none" stroke="black" cx="279.83" cy="-176.7" rx="30.41" ry="13.61"/>
<text text-anchor="start" x="266.33" y="-172.83" font-family="Times New Roman,serif" font-size="10.00"> ECTS </text>
</g>
<!-- COURSES&#45;&#45;COURSES_ECTS -->
<g id="edge6" class="edge">
<title>COURSES&#45;&#45;COURSES_ECTS</title>
<path fill="none" stroke="black" d="M272.03,-112.73C273.88,-127.87 276.46,-149.08 278.14,-162.85"/>
</g>
<!-- PROFESSORS -->
<g id="node3" class="node">
<title>PROFESSORS</title>
<polygon fill="none" stroke="black" points="491.62,-130.23 385.62,-130.23 385.62,-94.23 491.62,-94.23 491.62,-130.23"/>
<text text-anchor="middle" x="438.62" y="-106.81" font-family="Times New Roman,serif" font-size="14.00">PROFESSORS</text>
</g>
<!-- PROFESSORS_Position -->
<g id="node12" class="node">
<title>PROFESSORS_Position</title>
<ellipse fill="none" stroke="black" cx="455.89" cy="-29.52" rx="37.83" ry="13.61"/>
<text text-anchor="start" x="437.14" y="-25.65" font-family="Times New Roman,serif" font-size="10.00"> Position </text>
</g>
<!-- PROFESSORS&#45;&#45;PROFESSORS_Position -->
<g id="edge7" class="edge">
<title>PROFESSORS&#45;&#45;PROFESSORS_Position</title>
<path fill="none" stroke="black" d="M442.46,-93.88C445.63,-78.65 450.09,-57.32 452.98,-43.46"/>
</g>
<!-- ASSISTANTS -->
<g id="node4" class="node">
<title>ASSISTANTS</title>
<polygon fill="none" stroke="black" points="571.09,-234.15 470.34,-234.15 470.34,-198.15 571.09,-198.15 571.09,-234.15"/>
<text text-anchor="middle" x="520.72" y="-210.73" font-family="Times New Roman,serif" font-size="14.00">ASSISTANTS</text>
</g>
<!-- UNIVERSITY EMPLOYEES -->
<g id="node5" class="node">
<title>UNIVERSITY EMPLOYEES</title>
<polygon fill="none" stroke="black" points="693.3,-125.44 508.55,-125.44 508.55,-89.44 693.3,-89.44 693.3,-125.44"/>
<text text-anchor="middle" x="600.93" y="-102.01" font-family="Times New Roman,serif" font-size="14.00">UNIVERSITY EMPLOYEES</text>
</g>
<!-- UNIVERSITY EMPLOYEES_EID -->
<g id="node13" class="node">
<title>UNIVERSITY EMPLOYEES_EID</title>
<ellipse fill="none" stroke="black" cx="677.07" cy="-94.47" rx="25.1" ry="13.61"/>
<text text-anchor="start" x="667.32" y="-91.6" font-family="Times New Roman,serif" font-size="10.00"> </text>
<text text-anchor="start" x="669.57" y="-91.6" font-family="Times New Roman,serif" text-decoration="underline" font-size="10.00">EID</text>
<text text-anchor="start" x="684.57" y="-91.6" font-family="Times New Roman,serif" font-size="10.00"> </text>
</g>
<!-- UNIVERSITY EMPLOYEES&#45;&#45;UNIVERSITY EMPLOYEES_EID -->
<g id="edge8" class="edge">
<title>UNIVERSITY EMPLOYEES&#45;&#45;UNIVERSITY EMPLOYEES_EID</title>
<path fill="none" stroke="black" d="M677.01,-94.48C677.03,-94.48 677.04,-94.48 677.05,-94.48"/>
</g>
<!-- UNIVERSITY EMPLOYEES_Name -->
<g id="node14" class="node">
<title>UNIVERSITY EMPLOYEES_Name</title>
<ellipse fill="none" stroke="black" cx="651.94" cy="-175.96" rx="30.41" ry="13.61"/>
<text text-anchor="start" x="638.44" y="-172.08" font-family="Times New Roman,serif" font-size="10.00"> Name </text>
</g>
<!-- UNIVERSITY EMPLOYEES&#45;&#45;UNIVERSITY EMPLOYEES_Name -->
<g id="edge9" class="edge">
<title>UNIVERSITY EMPLOYEES&#45;&#45;UNIVERSITY EMPLOYEES_Name</title>
<path fill="none" stroke="black" d="M614.6,-125.8C623.34,-137.53 634.45,-152.47 642.28,-162.98"/>
</g>
<!-- UNIVERSITY EMPLOYEES_Room Number -->
<g id="node15" class="node">
<title>UNIVERSITY EMPLOYEES_Room Number</title>
<ellipse fill="none" stroke="black" cx="629.05" cy="-27.53" rx="54.8" ry="13.61"/>
<text text-anchor="start" x="598.3" y="-23.65" font-family="Times New Roman,serif" font-size="10.00"> Room Number </text>
</g>
<!-- UNIVERSITY EMPLOYEES&#45;&#45;UNIVERSITY EMPLOYEES_Room Number -->
<g id="edge10" class="edge">
<title>UNIVERSITY EMPLOYEES&#45;&#45;UNIVERSITY EMPLOYEES_Room Number</title>
<path fill="none" stroke="black" d="M607.31,-89.3C612.43,-74.75 619.51,-54.63 624.18,-41.36"/>
</g>
<!-- ATTEND -->
<g id="node16" class="node">
<title>ATTEND</title>
<polygon fill="lightgrey" stroke="black" points="183.67,-110.4 116.39,-92.4 183.67,-74.4 250.94,-92.4 183.67,-110.4"/>
<text text-anchor="middle" x="183.67" y="-86.97" font-family="Times New Roman,serif" font-size="14.00">ATTEND</text>
</g>
<!-- ATTEND&#45;&#45;STUDENTS -->
<g id="edge11" class="edge">
<title>ATTEND&#45;&#45;STUDENTS</title>
<path fill="none" stroke="black" d="M124.37,-95.04C124.27,-95.04 124.17,-95.05 124.07,-95.05"/>
<text text-anchor="middle" x="111.84" y="-97.5" font-family="Times New Roman,serif" font-size="14.00">N:M</text>
</g>
<!-- ATTEND&#45;&#45;COURSES -->
<g id="edge12" class="edge">
<title>ATTEND&#45;&#45;COURSES</title>
<path fill="none" stroke="black" d="M246.72,-93.93C246.83,-93.93 246.93,-93.93 247.03,-93.94"/>
<text text-anchor="middle" x="234.5" y="-80.63" font-family="Times New Roman,serif" font-size="14.00">N:M</text>
</g>
<!-- TEACH -->
<g id="node17" class="node">
<title>TEACH</title>
<polygon fill="lightgrey" stroke="black" points="355.61,-120.4 296.8,-102.4 355.61,-84.4 414.42,-102.4 355.61,-120.4"/>
<text text-anchor="middle" x="355.61" y="-96.97" font-family="Times New Roman,serif" font-size="14.00">TEACH</text>
</g>
<!-- TEACH&#45;&#45;COURSES -->
<g id="edge14" class="edge">
<title>TEACH&#45;&#45;COURSES</title>
<path fill="none" stroke="black" d="M309.2,-98.12C309.04,-98.1 308.88,-98.09 308.72,-98.08"/>
<text text-anchor="middle" x="299.21" y="-100.55" font-family="Times New Roman,serif" font-size="14.00">N:1</text>
</g>
<!-- TEACH&#45;&#45;PROFESSORS -->
<g id="edge13" class="edge">
<title>TEACH&#45;&#45;PROFESSORS</title>
<path fill="none" stroke="black" d="M399.06,-107.55C399.22,-107.56 399.38,-107.58 399.53,-107.6"/>
<text text-anchor="middle" x="389.55" y="-110.02" font-family="Times New Roman,serif" font-size="14.00">1:N</text>
</g>
<!-- WORK FOR -->
<g id="node18" class="node">
<title>WORK FOR</title>
<polygon fill="lightgrey" stroke="black" points="447.56,-216.26 361.23,-198.26 447.56,-180.26 533.89,-198.26 447.56,-216.26"/>
<text text-anchor="middle" x="447.56" y="-192.84" font-family="Times New Roman,serif" font-size="14.00">WORK FOR</text>
</g>
<!-- WORK FOR&#45;&#45;PROFESSORS -->
<g id="edge16" class="edge">
<title>WORK FOR&#45;&#45;PROFESSORS</title>
<path fill="none" stroke="black" d="M445.71,-180.44C444.2,-165.87 442.06,-145.35 440.53,-130.63"/>
<text text-anchor="middle" x="433.37" y="-157.98" font-family="Times New Roman,serif" font-size="14.00">1:N</text>
</g>
<!-- WORK FOR&#45;&#45;ASSISTANTS -->
<g id="edge15" class="edge">
<title>WORK FOR&#45;&#45;ASSISTANTS</title>
<path fill="none" stroke="black" d="M488.42,-208.25C488.55,-208.28 488.68,-208.32 488.81,-208.35"/>
<text text-anchor="middle" x="478.86" y="-195" font-family="Times New Roman,serif" font-size="14.00">N:1</text>
</g>
<!-- PREREQUISITE -->
<g id="node19" class="node">
<title>PREREQUISITE</title>
<polygon fill="lightgrey" stroke="black" points="234.14,-184.59 125.94,-166.59 234.14,-148.59 342.35,-166.59 234.14,-184.59"/>
<text text-anchor="middle" x="234.14" y="-161.17" font-family="Times New Roman,serif" font-size="14.00">PREREQUISITE</text>
</g>
<!-- PREREQUISITE&#45;&#45;COURSES -->
<g id="edge17" class="edge">
<title>PREREQUISITE&#45;&#45;COURSES</title>
<path fill="none" stroke="black" d="M248.7,-150.68C255.46,-139.49 262.76,-124.53 267.09,-112.83"/>
<text text-anchor="middle" x="248.14" y="-134.21" font-family="Times New Roman,serif" font-size="14.00">N:1</text>
</g>
<!-- PREREQUISITE&#45;&#45;COURSES -->
<g id="edge18" class="edge">
<title>PREREQUISITE&#45;&#45;COURSES</title>
<path fill="none" stroke="black" d="M236.66,-148.8C240.67,-137.82 247.39,-123.82 253.86,-112.75"/>
<text text-anchor="middle" x="235.51" y="-117.48" font-family="Times New Roman,serif" font-size="14.00">1:N</text>
</g>
<!-- EMPLOYEE -->
<g id="node20" class="node">
<title>EMPLOYEE</title>
<polygon fill="lightgrey" stroke="black" points="520.37,-148.84 436.16,-130.84 520.37,-112.84 604.58,-130.84 520.37,-148.84"/>
<text text-anchor="middle" x="520.37" y="-125.41" font-family="Times New Roman,serif" font-size="14.00">EMPLOYEE</text>
</g>
<!-- EMPLOYEE&#45;&#45;PROFESSORS -->
<g id="edge19" class="edge">
<title>EMPLOYEE&#45;&#45;PROFESSORS</title>
<path fill="none" stroke="black" d="M478.54,-121.32C478.38,-121.28 478.22,-121.25 478.07,-121.21"/>
<text text-anchor="middle" x="486.55" y="-107.96" font-family="Times New Roman,serif" font-size="14.00">1:1</text>
</g>
<!-- EMPLOYEE&#45;&#45;ASSISTANTS -->
<g id="edge21" class="edge">
<title>EMPLOYEE&#45;&#45;ASSISTANTS</title>
<path fill="none" stroke="black" d="M520.44,-148.93C520.5,-163.31 520.58,-183.34 520.64,-197.79"/>
<text text-anchor="middle" x="512.29" y="-160.06" font-family="Times New Roman,serif" font-size="14.00">1:1</text>
</g>
<!-- EMPLOYEE&#45;&#45;UNIVERSITY EMPLOYEES -->
<g id="edge20" class="edge">
<title>EMPLOYEE&#45;&#45;UNIVERSITY EMPLOYEES</title>
<path fill="none" stroke="black" d="M570.48,-123.19C570.61,-123.15 570.74,-123.1 570.87,-123.06"/>
<text text-anchor="middle" x="562.43" y="-125.57" font-family="Times New Roman,serif" font-size="14.00">1:1</text>
</g>
<!-- EMPLOYEE&#45;&#45;UNIVERSITY EMPLOYEES -->
<g id="edge22" class="edge">
<title>EMPLOYEE&#45;&#45;UNIVERSITY EMPLOYEES</title>
<path fill="none" stroke="black" d="M543.66,-117.51C543.75,-117.48 543.84,-117.45 543.93,-117.41"/>
<text text-anchor="middle" x="535.55" y="-119.91" font-family="Times New Roman,serif" font-size="14.00">1:1</text>
</g>
</g>
</svg>
<?xml version="1.0" encoding="UTF-8" standalone="no"?>
<!DOCTYPE svg PUBLIC "-//W3C//DTD SVG 1.1//EN"
 "http://www.w3.org/Graphics/SVG/1.1/DTD/svg11.dtd">
<!-- Generated by graphviz version 8.1.0 (20230707.0739)
 -->
<!-- Pages: 1 -->
<svg width="8pt" height="8pt"
 viewBox="0.00 0.00 8.00 8.00" xmlns="http://www.w3.org/2000/svg" xmlns:xlink="http://www.w3.org/1999/xlink">
<g id="page0,1_graph0" class="graph" transform="scale(1 1) rotate(0) translate(4 4)">
<polygon fill="white" stroke="none" points="-4,4 -4,-4 4,-4 4,4 -4,4"/>
</g>
</svg>
