<?xml version="1.0" encoding="UTF-8" standalone="no"?>
<!DOCTYPE svg PUBLIC "-//W3C//DTD SVG 1.1//EN"
 "http://www.w3.org/Graphics/SVG/1.1/DTD/svg11.dtd">
<!-- Generated by graphviz version 8.1.0 (20230707.0739)
 -->
<!-- Title: ConceptualModel Pages: 1 -->
<svg width="1145pt" height="405pt"
 viewBox="0.00 0.00 1144.99 405.22" xmlns="http://www.w3.org/2000/svg" xmlns:xlink="http://www.w3.org/1999/xlink">
<g id="graph0" class="graph" transform="scale(1 1) rotate(0) translate(4 401.22)">
<title>ConceptualModel</title>
<polygon fill="white" stroke="none" points="-4,4 -4,-401.22 1140.99,-401.22 1140.99,4 -4,4"/>
<!-- STUDENTS -->
<g id="node1" class="node">
<title>STUDENTS</title>
<polygon fill="none" stroke="black" points="155.92,-136.43 67.92,-136.43 67.92,-100.43 155.92,-100.43 155.92,-136.43"/>
<text text-anchor="middle" x="111.92" y="-113" font-family="Times New Roman,serif" font-size="14.00">STUDENTS</text>
</g>
<!-- STUDENTS_SID -->
<g id="node6" class="node">
<title>STUDENTS_SID</title>
<ellipse fill="none" stroke="black" cx="25.1" cy="-95.02" rx="25.1" ry="13.61"/>
<text text-anchor="start" x="15.35" y="-92.15" font-family="Times New Roman,serif" font-size="10.00"> </text>
<text text-anchor="start" x="17.6" y="-92.15" font-family="Times New Roman,serif" text-decoration="underline" font-size="10.00">SID</text>
<text text-anchor="start" x="32.6" y="-92.15" font-family="Times New Roman,serif" font-size="10.00"> </text>
</g>
<!-- STUDENTS&#45;&#45;STUDENTS_SID -->
<g id="edge1" class="edge">
<title>STUDENTS&#45;&#45;STUDENTS_SID</title>
<path fill="none" stroke="black" d="M67.5,-106.45C60.65,-104.61 53.85,-102.77 47.75,-101.13"/>
</g>
<!-- STUDENTS_Name -->
<g id="node7" class="node">
<title>STUDENTS_Name</title>
<ellipse fill="none" stroke="black" cx="60.16" cy="-198.1" rx="30.41" ry="13.61"/>
<text text-anchor="start" x="46.66" y="-194.22" font-family="Times New Roman,serif" font-size="10.00"> Name </text>
</g>
<!-- STUDENTS&#45;&#45;STUDENTS_Name -->
<g id="edge2" class="edge">
<title>STUDENTS&#45;&#45;STUDENTS_Name</title>
<path fill="none" stroke="black" d="M99.92,-136.91C90.42,-151.52 77.38,-171.59 68.87,-184.7"/>
</g>
<!-- STUDENTS_Semester -->
<g id="node8" class="node">
<title>STUDENTS_Semester</title>
<ellipse fill="none" stroke="black" cx="107.36" cy="-23.55" rx="39.95" ry="13.61"/>
<text text-anchor="start" x="87.11" y="-19.68" font-family="Times New Roman,serif" font-size="10.00"> Semester </text>
</g>
<!-- STUDENTS&#45;&#45;STUDENTS_Semester -->
<g id="edge3" class="edge">
<title>STUDENTS&#45;&#45;STUDENTS_Semester</title>
<path fill="none" stroke="black" d="M111.04,-100.13C110.16,-81.83 108.83,-54.06 108.03,-37.47"/>
</g>
<!-- COURSES -->
<g id="node2" class="node">
<title>COURSES</title>
<polygon fill="none" stroke="black" points="450.76,-228.08 370.26,-228.08 370.26,-192.08 450.76,-192.08 450.76,-228.08"/>
<text text-anchor="middle" x="410.51" y="-204.65" font-family="Times New Roman,serif" font-size="14.00">COURSES</text>
</g>
<!-- COURSES_CID -->
<g id="node9" class="node">
<title>COURSES_CID</title>
<ellipse fill="none" stroke="black" cx="378.51" cy="-131.54" rx="25.63" ry="13.61"/>
<text text-anchor="start" x="368.38" y="-128.67" font-family="Times New Roman,serif" font-size="10.00"> </text>
<text text-anchor="start" x="370.63" y="-128.67" font-family="Times New Roman,serif" text-decoration="underline" font-size="10.00">CID</text>
<text text-anchor="start" x="386.38" y="-128.67" font-family="Times New Roman,serif" font-size="10.00"> </text>
</g>
<!-- COURSES&#45;&#45;COURSES_CID -->
<g id="edge4" class="edge">
<title>COURSES&#45;&#45;COURSES_CID</title>
<path fill="none" stroke="black" d="M403.09,-191.86C397.25,-177.54 389.26,-157.92 383.99,-145"/>
</g>
<!-- COURSES_Title -->
<g id="node10" class="node">
<title>COURSES_Title</title>
<ellipse fill="none" stroke="black" cx="450.76" cy="-131.67" rx="27.22" ry="13.61"/>
<text text-anchor="start" x="439.51" y="-127.79" font-family="Times New Roman,serif" font-size="10.00"> Title </text>
</g>
<!-- COURSES&#45;&#45;COURSES_Title -->
<g id="edge5" class="edge">
<title>COURSES&#45;&#45;COURSES_Title</title>
<path fill="none" stroke="black" d="M419.85,-191.89C427.18,-177.59 437.24,-158 443.86,-145.1"/>
</g>
<!-- COURSES_ECTS -->
<g id="node11" class="node">
<title>COURSES_ECTS</title>
<ellipse fill="none" stroke="black" cx="399.05" cy="-286.88" rx="30.41" ry="13.61"/>
<text text-anchor="start" x="385.55" y="-283" font-family="Times New Roman,serif" font-size="10.00"> ECTS </text>
</g>
<!-- COURSES&#45;&#45;COURSES_ECTS -->
<g id="edge6" class="edge">
<title>COURSES&#45;&#45;COURSES_ECTS</title>
<path fill="none" stroke="black" d="M407.8,-228.28C405.76,-241.94 403,-260.37 401.13,-272.89"/>
</g>
<!-- PROFESSORS -->
<g id="node3" class="node">
<title>PROFESSORS</title>
<polygon fill="none" stroke="black" points="775.61,-244.57 669.61,-244.57 669.61,-208.57 775.61,-208.57 775.61,-244.57"/>
<text text-anchor="middle" x="722.61" y="-221.14" font-family="Times New Roman,serif" font-size="14.00">PROFESSORS</text>
</g>
<!-- PROFESSORS_Position -->
<g id="node12" class="node">
<title>PROFESSORS_Position</title>
<ellipse fill="none" stroke="black" cx="723.77" cy="-139.48" rx="37.83" ry="13.61"/>
<text text-anchor="start" x="705.02" y="-135.61" font-family="Times New Roman,serif" font-size="10.00"> Position </text>
</g>
<!-- PROFESSORS&#45;&#45;PROFESSORS_Position -->
<g id="edge7" class="edge">
<title>PROFESSORS&#45;&#45;PROFESSORS_Position</title>
<path fill="none" stroke="black" d="M722.86,-208.1C723.07,-191.72 723.39,-168.17 723.59,-153.36"/>
</g>
<!-- ASSISTANTS -->
<g id="node4" class="node">
<title>ASSISTANTS</title>
<polygon fill="none" stroke="black" points="966.27,-380.48 865.52,-380.48 865.52,-344.48 966.27,-344.48 966.27,-380.48"/>
<text text-anchor="middle" x="915.89" y="-357.06" font-family="Times New Roman,serif" font-size="14.00">ASSISTANTS</text>
</g>
<!-- UNIVERSITY EMPLOYEES -->
<g id="node5" class="node">
<title>UNIVERSITY EMPLOYEES</title>
<polygon fill="none" stroke="black" points="1095.07,-124.02 910.32,-124.02 910.32,-88.02 1095.07,-88.02 1095.07,-124.02"/>
<text text-anchor="middle" x="1002.69" y="-100.59" font-family="Times New Roman,serif" font-size="14.00">UNIVERSITY EMPLOYEES</text>
</g>
<!-- UNIVERSITY EMPLOYEES_EID -->
<g id="node13" class="node">
<title>UNIVERSITY EMPLOYEES_EID</title>
<ellipse fill="none" stroke="black" cx="988.69" cy="-13.61" rx="25.1" ry="13.61"/>
<text text-anchor="start" x="978.94" y="-10.74" font-family="Times New Roman,serif" font-size="10.00"> </text>
<text text-anchor="start" x="981.19" y="-10.74" font-family="Times New Roman,serif" text-decoration="underline" font-size="10.00">EID</text>
<text text-anchor="start" x="996.19" y="-10.74" font-family="Times New Roman,serif" font-size="10.00"> </text>
</g>
<!-- UNIVERSITY EMPLOYEES&#45;&#45;UNIVERSITY EMPLOYEES_EID -->
<g id="edge8" class="edge">
<title>UNIVERSITY EMPLOYEES&#45;&#45;UNIVERSITY EMPLOYEES_EID</title>
<path fill="none" stroke="black" d="M999.92,-87.76C997.25,-70.09 993.25,-43.68 990.81,-27.61"/>
</g>
<!-- UNIVERSITY EMPLOYEES_Name -->
<g id="node14" class="node">
<title>UNIVERSITY EMPLOYEES_Name</title>
<ellipse fill="none" stroke="black" cx="1072.72" cy="-167.75" rx="30.41" ry="13.61"/>
<text text-anchor="start" x="1059.22" y="-163.87" font-family="Times New Roman,serif" font-size="10.00"> Name </text>
</g>
<!-- UNIVERSITY EMPLOYEES&#45;&#45;UNIVERSITY EMPLOYEES_Name -->
<g id="edge9" class="edge">
<title>UNIVERSITY EMPLOYEES&#45;&#45;UNIVERSITY EMPLOYEES_Name</title>
<path fill="none" stroke="black" d="M1023.32,-124.2C1034.78,-134.3 1048.73,-146.6 1058.88,-155.54"/>
</g>
<!-- UNIVERSITY EMPLOYEES_Room Number -->
<g id="node15" class="node">
<title>UNIVERSITY EMPLOYEES_Room Number</title>
<ellipse fill="none" stroke="black" cx="1082.19" cy="-60.34" rx="54.8" ry="13.61"/>
<text text-anchor="start" x="1051.44" y="-56.47" font-family="Times New Roman,serif" font-size="10.00"> Room Number </text>
</g>
<!-- UNIVERSITY EMPLOYEES&#45;&#45;UNIVERSITY EMPLOYEES_Room Number -->
<g id="edge10" class="edge">
<title>UNIVERSITY EMPLOYEES&#45;&#45;UNIVERSITY EMPLOYEES_Room Number</title>
<path fill="none" stroke="black" d="M1034.57,-87.7C1043.03,-82.84 1052,-77.69 1059.84,-73.18"/>
</g>
<!-- ATTEND -->
<g id="node16" class="node">
<title>ATTEND</title>
<polygon fill="lightgrey" stroke="black" points="253.39,-189.32 186.11,-171.32 253.39,-153.32 320.67,-171.32 253.39,-189.32"/>
<text text-anchor="middle" x="253.39" y="-165.89" font-family="Times New Roman,serif" font-size="14.00">ATTEND</text>
</g>
<!-- ATTEND&#45;&#45;STUDENTS -->
<g id="edge11" class="edge">
<title>ATTEND&#45;&#45;STUDENTS</title>
<path fill="none" stroke="black" d="M224.76,-160.61C205.14,-153.28 178.73,-143.4 156.39,-135.05"/>
<text text-anchor="middle" x="178.2" y="-134.53" font-family="Times New Roman,serif" font-size="14.00">N:M</text>
</g>
<!-- ATTEND&#45;&#45;COURSES -->
<g id="edge12" class="edge">
<title>ATTEND&#45;&#45;COURSES</title>
<path fill="none" stroke="black" d="M289.04,-180.11C313.13,-186.05 344.97,-193.91 370.01,-200.09"/>
<text text-anchor="middle" x="317.15" y="-192.55" font-family="Times New Roman,serif" font-size="14.00">N:M</text>
</g>
<!-- TEACH -->
<g id="node17" class="node">
<title>TEACH</title>
<polygon fill="lightgrey" stroke="black" points="569.79,-245.47 510.98,-227.47 569.79,-209.47 628.6,-227.47 569.79,-245.47"/>
<text text-anchor="middle" x="569.79" y="-222.05" font-family="Times New Roman,serif" font-size="14.00">TEACH</text>
</g>
<!-- TEACH&#45;&#45;COURSES -->
<g id="edge14" class="edge">
<title>TEACH&#45;&#45;COURSES</title>
<path fill="none" stroke="black" d="M525.42,-222.63C502.13,-220.08 473.8,-216.99 451.1,-214.51"/>
<text text-anchor="middle" x="478.51" y="-221.02" font-family="Times New Roman,serif" font-size="14.00">N:1</text>
</g>
<!-- TEACH&#45;&#45;PROFESSORS -->
<g id="edge13" class="edge">
<title>TEACH&#45;&#45;PROFESSORS</title>
<path fill="none" stroke="black" d="M628.87,-227.12C642.14,-227.05 656.15,-226.96 669.18,-226.88"/>
<text text-anchor="middle" x="639.28" y="-229.45" font-family="Times New Roman,serif" font-size="14.00">1:N</text>
</g>
<!-- WORK FOR -->
<g id="node18" class="node">
<title>WORK FOR</title>
<polygon fill="lightgrey" stroke="black" points="771.19,-396.48 684.86,-378.48 771.19,-360.48 857.52,-378.48 771.19,-396.48"/>
<text text-anchor="middle" x="771.19" y="-373.05" font-family="Times New Roman,serif" font-size="14.00">WORK FOR</text>
</g>
<!-- WORK FOR&#45;&#45;PROFESSORS -->
<g id="edge16" class="edge">
<title>WORK FOR&#45;&#45;PROFESSORS</title>
<path fill="none" stroke="black" d="M765.71,-361.34C756.48,-332.48 737.91,-274.41 728.45,-244.81"/>
<text text-anchor="middle" x="737.33" y="-305.53" font-family="Times New Roman,serif" font-size="14.00">1:N</text>
</g>
<!-- WORK FOR&#45;&#45;ASSISTANTS -->
<g id="edge15" class="edge">
<title>WORK FOR&#45;&#45;ASSISTANTS</title>
<path fill="none" stroke="black" d="M828.79,-372.11C840.77,-370.78 853.32,-369.4 865.03,-368.1"/>
<text text-anchor="middle" x="851.79" y="-356.81" font-family="Times New Roman,serif" font-size="14.00">N:1</text>
</g>
<!-- PREREQUISITE -->
<g id="node19" class="node">
<title>PREREQUISITE</title>
<polygon fill="lightgrey" stroke="black" points="368.27,-397.22 260.06,-379.22 368.27,-361.22 476.47,-379.22 368.27,-397.22"/>
<text text-anchor="middle" x="368.27" y="-373.8" font-family="Times New Roman,serif" font-size="14.00">PREREQUISITE</text>
</g>
<!-- PREREQUISITE&#45;&#45;COURSES -->
<g id="edge17" class="edge">
<title>PREREQUISITE&#45;&#45;COURSES</title>
<path fill="none" stroke="black" d="M377.03,-362.18C388.33,-330.14 405.5,-261.27 410.37,-228.33"/>
<text text-anchor="middle" x="383.95" y="-297.7" font-family="Times New Roman,serif" font-size="14.00">N:1</text>
</g>
<!-- PREREQUISITE&#45;&#45;COURSES -->
<g id="edge18" class="edge">
<title>PREREQUISITE&#45;&#45;COURSES</title>
<path fill="none" stroke="black" d="M368.4,-361.04C373.19,-328.59 389.96,-261.13 401.27,-228.51"/>
<text text-anchor="middle" x="375.08" y="-281.47" font-family="Times New Roman,serif" font-size="14.00">1:N</text>
</g>
<!-- EMPLOYEE -->
<g id="node20" class="node">
<title>EMPLOYEE</title>
<polygon fill="lightgrey" stroke="black" points="878.38,-223.81 794.17,-205.81 878.38,-187.81 962.6,-205.81 878.38,-223.81"/>
<text text-anchor="middle" x="878.38" y="-200.39" font-family="Times New Roman,serif" font-size="14.00">EMPLOYEE</text>
</g>
<!-- EMPLOYEE&#45;&#45;PROFESSORS -->
<g id="edge19" class="edge">
<title>EMPLOYEE&#45;&#45;PROFESSORS</title>
<path fill="none" stroke="black" d="M825.21,-212.9C809.35,-215.01 791.96,-217.33 776.07,-219.44"/>
<text text-anchor="middle" x="792.39" y="-218.62" font-family="Times New Roman,serif" font-size="14.00">1:1</text>
</g>
<!-- EMPLOYEE&#45;&#45;ASSISTANTS -->
<g id="edge21" class="edge">
<title>EMPLOYEE&#45;&#45;ASSISTANTS</title>
<path fill="none" stroke="black" d="M882.54,-223.18C889.67,-252.97 904.18,-313.57 911.48,-344.07"/>
<text text-anchor="middle" x="888.76" y="-286.07" font-family="Times New Roman,serif" font-size="14.00">1:1</text>
</g>
<!-- EMPLOYEE&#45;&#45;UNIVERSITY EMPLOYEES -->
<g id="edge20" class="edge">
<title>EMPLOYEE&#45;&#45;UNIVERSITY EMPLOYEES</title>
<path fill="none" stroke="black" d="M903.03,-192.74C928.38,-175.11 966.87,-144.07 987.89,-124.19"/>
<text text-anchor="middle" x="937.21" y="-160.92" font-family="Times New Roman,serif" font-size="14.00">1:1</text>
</g>
<!-- EMPLOYEE&#45;&#45;UNIVERSITY EMPLOYEES -->
<g id="edge22" class="edge">
<title>EMPLOYEE&#45;&#45;UNIVERSITY EMPLOYEES</title>
<path fill="none" stroke="black" d="M890.74,-189.98C909.22,-172.09 944.38,-143.36 970.43,-124.49"/>
<text text-anchor="middle" x="922.33" y="-143.93" font-family="Times New Roman,serif" font-size="14.00">1:1</text>
</g>
</g>
</svg>
<?xml version="1.0" encoding="UTF-8" standalone="no"?>
<!DOCTYPE svg PUBLIC "-//W3C//DTD SVG 1.1//EN"
 "http://www.w3.org/Graphics/SVG/1.1/DTD/svg11.dtd">
<!-- Generated by graphviz version 8.1.0 (20230707.0739)
 -->
<!-- Pages: 1 -->
<svg width="8pt" height="8pt"
 viewBox="0.00 0.00 8.00 8.00" xmlns="http://www.w3.org/2000/svg" xmlns:xlink="http://www.w3.org/1999/xlink">
<g id="page0,1_graph0" class="graph" transform="scale(1 1) rotate(0) translate(4 4)">
<polygon fill="white" stroke="none" points="-4,4 -4,-4 4,-4 4,4 -4,4"/>
</g>
</svg>
