<?xml version="1.0" encoding="UTF-8" standalone="no"?>
<!DOCTYPE svg PUBLIC "-//W3C//DTD SVG 1.1//EN"
 "http://www.w3.org/Graphics/SVG/1.1/DTD/svg11.dtd">
<!-- Generated by graphviz version 8.1.0 (20230707.0739)
 -->
<!-- Title: ConceptualModel Pages: 1 -->
<svg width="459pt" height="782pt"
 viewBox="0.00 0.00 458.82 782.30" xmlns="http://www.w3.org/2000/svg" xmlns:xlink="http://www.w3.org/1999/xlink">
<g id="graph0" class="graph" transform="scale(1 1) rotate(0) translate(4 778.3)">
<title>ConceptualModel</title>
<polygon fill="white" stroke="none" points="-4,4 -4,-778.3 454.82,-778.3 454.82,4 -4,4"/>
<!-- STUDENT -->
<g id="node1" class="node">
<title>STUDENT</title>
<polygon fill="none" stroke="black" points="184.62,-694.74 104.87,-694.74 104.87,-658.74 184.62,-658.74 184.62,-694.74"/>
<text text-anchor="middle" x="144.75" y="-671.32" font-family="Times New Roman,serif" font-size="14.00">STUDENT</text>
</g>
<!-- STUDENT_ID -->
<g id="node4" class="node">
<title>STUDENT_ID</title>
<ellipse fill="none" stroke="black" cx="96.39" cy="-760.69" rx="21.39" ry="13.61"/>
<text text-anchor="start" x="89.26" y="-757.82" font-family="Times New Roman,serif" font-size="10.00"> </text>
<text text-anchor="start" x="91.51" y="-757.82" font-family="Times New Roman,serif" text-decoration="underline" font-size="10.00">ID</text>
<text text-anchor="start" x="101.26" y="-757.82" font-family="Times New Roman,serif" font-size="10.00"> </text>
</g>
<!-- STUDENT&#45;&#45;STUDENT_ID -->
<g id="edge1" class="edge">
<title>STUDENT&#45;&#45;STUDENT_ID</title>
<path fill="none" stroke="black" d="M134.26,-694.96C125.09,-710.87 112.01,-733.58 103.87,-747.71"/>
</g>
<!-- STUDENT_Name -->
<g id="node5" class="node">
<title>STUDENT_Name</title>
<ellipse fill="none" stroke="black" cx="215.17" cy="-747.6" rx="30.41" ry="13.61"/>
<text text-anchor="start" x="201.67" y="-743.73" font-family="Times New Roman,serif" font-size="10.00"> Name </text>
</g>
<!-- STUDENT&#45;&#45;STUDENT_Name -->
<g id="edge2" class="edge">
<title>STUDENT&#45;&#45;STUDENT_Name</title>
<path fill="none" stroke="black" d="M162.88,-694.99C175.27,-707.46 191.38,-723.67 202.43,-734.78"/>
</g>
<!-- STUDENT_DateOfBirth -->
<g id="node6" class="node">
<title>STUDENT_DateOfBirth</title>
<ellipse fill="none" stroke="black" cx="48.44" cy="-650.78" rx="48.44" ry="13.61"/>
<text text-anchor="start" x="22.19" y="-646.91" font-family="Times New Roman,serif" font-size="10.00"> DateOfBirth </text>
</g>
<!-- STUDENT&#45;&#45;STUDENT_DateOfBirth -->
<g id="edge3" class="edge">
<title>STUDENT&#45;&#45;STUDENT_DateOfBirth</title>
<path fill="none" stroke="black" d="M104.46,-665.88C97.66,-664.05 90.64,-662.16 83.97,-660.36"/>
</g>
<!-- SUBJECT -->
<g id="node2" class="node">
<title>SUBJECT</title>
<polygon fill="none" stroke="black" points="368.82,-420.39 293.57,-420.39 293.57,-384.39 368.82,-384.39 368.82,-420.39"/>
<text text-anchor="middle" x="331.19" y="-396.96" font-family="Times New Roman,serif" font-size="14.00">SUBJECT</text>
</g>
<!-- SUBJECT_Code -->
<g id="node7" class="node">
<title>SUBJECT_Code</title>
<ellipse fill="none" stroke="black" cx="403.31" cy="-467.31" rx="29.34" ry="13.61"/>
<text text-anchor="start" x="390.56" y="-464.44" font-family="Times New Roman,serif" font-size="10.00"> </text>
<text text-anchor="start" x="392.81" y="-464.44" font-family="Times New Roman,serif" text-decoration="underline" font-size="10.00">Code</text>
<text text-anchor="start" x="413.81" y="-464.44" font-family="Times New Roman,serif" font-size="10.00"> </text>
</g>
<!-- SUBJECT&#45;&#45;SUBJECT_Code -->
<g id="edge4" class="edge">
<title>SUBJECT&#45;&#45;SUBJECT_Code</title>
<path fill="none" stroke="black" d="M351.66,-420.82C363.82,-431.77 378.91,-445.35 389.63,-455"/>
</g>
<!-- SUBJECT_Title -->
<g id="node8" class="node">
<title>SUBJECT_Title</title>
<ellipse fill="none" stroke="black" cx="423.6" cy="-375.5" rx="27.22" ry="13.61"/>
<text text-anchor="start" x="412.35" y="-371.63" font-family="Times New Roman,serif" font-size="10.00"> Title </text>
</g>
<!-- SUBJECT&#45;&#45;SUBJECT_Title -->
<g id="edge5" class="edge">
<title>SUBJECT&#45;&#45;SUBJECT_Title</title>
<path fill="none" stroke="black" d="M369.31,-391.3C379.55,-388.32 390.34,-385.18 399.58,-382.49"/>
</g>
<!-- SUBJECT_Credits -->
<g id="node9" class="node">
<title>SUBJECT_Credits</title>
<ellipse fill="none" stroke="black" cx="246.54" cy="-373.15" rx="34.65" ry="13.61"/>
<text text-anchor="start" x="230.04" y="-369.28" font-family="Times New Roman,serif" font-size="10.00"> Credits </text>
</g>
<!-- SUBJECT&#45;&#45;SUBJECT_Credits -->
<g id="edge6" class="edge">
<title>SUBJECT&#45;&#45;SUBJECT_Credits</title>
<path fill="none" stroke="black" d="M293.32,-389.31C286.46,-386.94 279.43,-384.51 272.98,-382.28"/>
</g>
<!-- PROFESSOR -->
<g id="node3" class="node">
<title>PROFESSOR</title>
<polygon fill="none" stroke="black" points="364.32,-92.61 266.57,-92.61 266.57,-56.61 364.32,-56.61 364.32,-92.61"/>
<text text-anchor="middle" x="315.45" y="-69.19" font-family="Times New Roman,serif" font-size="14.00">PROFESSOR</text>
</g>
<!-- PROFESSOR_ID -->
<g id="node10" class="node">
<title>PROFESSOR_ID</title>
<ellipse fill="none" stroke="black" cx="240.69" cy="-13.61" rx="21.39" ry="13.61"/>
<text text-anchor="start" x="233.57" y="-10.74" font-family="Times New Roman,serif" font-size="10.00"> </text>
<text text-anchor="start" x="235.82" y="-10.74" font-family="Times New Roman,serif" text-decoration="underline" font-size="10.00">ID</text>
<text text-anchor="start" x="245.57" y="-10.74" font-family="Times New Roman,serif" font-size="10.00"> </text>
</g>
<!-- PROFESSOR&#45;&#45;PROFESSOR_ID -->
<g id="edge7" class="edge">
<title>PROFESSOR&#45;&#45;PROFESSOR_ID</title>
<path fill="none" stroke="black" d="M293.02,-56.31C280.29,-45.92 264.79,-33.28 253.98,-24.45"/>
</g>
<!-- PROFESSOR_Name -->
<g id="node11" class="node">
<title>PROFESSOR_Name</title>
<ellipse fill="none" stroke="black" cx="394.88" cy="-19.34" rx="30.41" ry="13.61"/>
<text text-anchor="start" x="381.38" y="-15.46" font-family="Times New Roman,serif" font-size="10.00"> Name </text>
</g>
<!-- PROFESSOR&#45;&#45;PROFESSOR_Name -->
<g id="edge8" class="edge">
<title>PROFESSOR&#45;&#45;PROFESSOR_Name</title>
<path fill="none" stroke="black" d="M341.9,-56.21C353.81,-47.92 367.53,-38.37 378.02,-31.07"/>
</g>
<!-- ENROLLED -->
<g id="node12" class="node">
<title>ENROLLED</title>
<polygon fill="lightgrey" stroke="black" points="229.36,-556.82 145.85,-538.82 229.36,-520.82 312.87,-538.82 229.36,-556.82"/>
<text text-anchor="middle" x="229.36" y="-533.39" font-family="Times New Roman,serif" font-size="14.00">ENROLLED</text>
</g>
<!-- ENROLLED&#45;&#45;STUDENT -->
<g id="edge9" class="edge">
<title>ENROLLED&#45;&#45;STUDENT</title>
<path fill="none" stroke="black" d="M219.49,-554.91C203.62,-580.77 172.54,-631.44 155.9,-658.57"/>
<text text-anchor="middle" x="182.82" y="-609.19" font-family="Times New Roman,serif" font-size="14.00">N</text>
</g>
<!-- ENROLLED&#45;&#45;SUBJECT -->
<g id="edge10" class="edge">
<title>ENROLLED&#45;&#45;SUBJECT</title>
<path fill="none" stroke="black" d="M241.24,-522.9C260.23,-497.45 297.33,-447.75 317.44,-420.8"/>
<text text-anchor="middle" x="274.47" y="-474.3" font-family="Times New Roman,serif" font-size="14.00">N</text>
</g>
<!-- TEACHES -->
<g id="node13" class="node">
<title>TEACHES</title>
<polygon fill="lightgrey" stroke="black" points="314.78,-249.55 240.45,-231.55 314.78,-213.55 389.11,-231.55 314.78,-249.55"/>
<text text-anchor="middle" x="314.78" y="-226.13" font-family="Times New Roman,serif" font-size="14.00">TEACHES</text>
</g>
<!-- TEACHES&#45;&#45;SUBJECT -->
<g id="edge12" class="edge">
<title>TEACHES&#45;&#45;SUBJECT</title>
<path fill="none" stroke="black" d="M316.51,-249.51C319.64,-282.15 326.24,-350.87 329.41,-383.89"/>
<text text-anchor="middle" x="318.08" y="-319.15" font-family="Times New Roman,serif" font-size="14.00">N</text>
</g>
<!-- TEACHES&#45;&#45;PROFESSOR -->
<g id="edge11" class="edge">
<title>TEACHES&#45;&#45;PROFESSOR</title>
<path fill="none" stroke="black" d="M314.86,-213.24C314.99,-183 315.24,-122.97 315.37,-92.81"/>
<text text-anchor="middle" x="311.74" y="-155.48" font-family="Times New Roman,serif" font-size="14.00">1</text>
</g>
</g>
</svg>
<?xml version="1.0" encoding="UTF-8" standalone="no"?>
<!DOCTYPE svg PUBLIC "-//W3C//DTD SVG 1.1//EN"
 "http://www.w3.org/Graphics/SVG/1.1/DTD/svg11.dtd">
<!-- Generated by graphviz version 8.1.0 (20230707.0739)
 -->
<!-- Pages: 1 -->
<svg width="8pt" height="8pt"
 viewBox="0.00 0.00 8.00 8.00" xmlns="http://www.w3.org/2000/svg" xmlns:xlink="http://www.w3.org/1999/xlink">
<g id="page0,1_graph0" class="graph" transform="scale(1 1) rotate(0) translate(4 4)">
<polygon fill="white" stroke="none" points="-4,4 -4,-4 4,-4 4,4 -4,4"/>
</g>
</svg>
