<?xml version="1.0" encoding="UTF-8" standalone="no"?>
<!DOCTYPE svg PUBLIC "-//W3C//DTD SVG 1.1//EN"
 "http://www.w3.org/Graphics/SVG/1.1/DTD/svg11.dtd">
<!-- Generated by graphviz version 8.1.0 (20230707.0739)
 -->
<!-- Title: ConceptualModel Pages: 1 -->
<svg width="331pt" height="580pt"
 viewBox="0.00 0.00 331.46 579.97" xmlns="http://www.w3.org/2000/svg" xmlns:xlink="http://www.w3.org/1999/xlink">
<g id="graph0" class="graph" transform="scale(1 1) rotate(0) translate(4 575.97)">
<title>ConceptualModel</title>
<polygon fill="white" stroke="none" points="-4,4 -4,-575.97 327.46,-575.97 327.46,4 -4,4"/>
<!-- ESTUDIANT -->
<g id="node1" class="node">
<title>ESTUDIANT</title>
<polygon fill="none" stroke="black" points="272.68,-509.87 178.68,-509.87 178.68,-473.87 272.68,-473.87 272.68,-509.87"/>
<text text-anchor="middle" x="225.68" y="-486.44" font-family="Times New Roman,serif" font-size="14.00">ESTUDIANT</text>
</g>
<!-- ESTUDIANT_nom -->
<g id="node4" class="node">
<title>ESTUDIANT_nom</title>
<ellipse fill="none" stroke="black" cx="185.44" cy="-558.36" rx="26.69" ry="13.61"/>
<text text-anchor="start" x="174.56" y="-554.49" font-family="Times New Roman,serif" font-size="10.00"> nom </text>
</g>
<!-- ESTUDIANT&#45;&#45;ESTUDIANT_nom -->
<g id="edge1" class="edge">
<title>ESTUDIANT&#45;&#45;ESTUDIANT_nom</title>
<path fill="none" stroke="black" d="M214.68,-510.04C207.98,-521.11 199.57,-535.02 193.49,-545.07"/>
</g>
<!-- ESTUDIANT_ID -->
<g id="node5" class="node">
<title>ESTUDIANT_ID</title>
<ellipse fill="none" stroke="black" cx="302.07" cy="-506.54" rx="21.39" ry="13.61"/>
<text text-anchor="start" x="294.94" y="-503.67" font-family="Times New Roman,serif" font-size="10.00"> </text>
<text text-anchor="start" x="297.19" y="-503.67" font-family="Times New Roman,serif" text-decoration="underline" font-size="10.00">ID</text>
<text text-anchor="start" x="306.94" y="-503.67" font-family="Times New Roman,serif" font-size="10.00"> </text>
</g>
<!-- ESTUDIANT&#45;&#45;ESTUDIANT_ID -->
<g id="edge2" class="edge">
<title>ESTUDIANT&#45;&#45;ESTUDIANT_ID</title>
<path fill="none" stroke="black" d="M272.75,-500.91C275.7,-501.48 278.57,-502.03 281.3,-502.55"/>
</g>
<!-- CURS -->
<g id="node2" class="node">
<title>CURS</title>
<polygon fill="none" stroke="black" points="149.34,-275.46 95.34,-275.46 95.34,-239.46 149.34,-239.46 149.34,-275.46"/>
<text text-anchor="middle" x="122.34" y="-252.03" font-family="Times New Roman,serif" font-size="14.00">CURS</text>
</g>
<!-- CURS_ID -->
<g id="node6" class="node">
<title>CURS_ID</title>
<ellipse fill="none" stroke="black" cx="47.42" cy="-276.88" rx="21.39" ry="13.61"/>
<text text-anchor="start" x="40.3" y="-274" font-family="Times New Roman,serif" font-size="10.00"> </text>
<text text-anchor="start" x="42.55" y="-274" font-family="Times New Roman,serif" text-decoration="underline" font-size="10.00">ID</text>
<text text-anchor="start" x="52.3" y="-274" font-family="Times New Roman,serif" font-size="10.00"> </text>
</g>
<!-- CURS&#45;&#45;CURS_ID -->
<g id="edge3" class="edge">
<title>CURS&#45;&#45;CURS_ID</title>
<path fill="none" stroke="black" d="M94.87,-264.58C85.85,-266.91 76,-269.47 67.62,-271.64"/>
</g>
<!-- CURS_títol -->
<g id="node7" class="node">
<title>CURS_títol</title>
<ellipse fill="none" stroke="black" cx="190.6" cy="-222.07" rx="25.63" ry="13.61"/>
<text text-anchor="start" x="180.47" y="-218.2" font-family="Times New Roman,serif" font-size="10.00"> títol </text>
</g>
<!-- CURS&#45;&#45;CURS_títol -->
<g id="edge4" class="edge">
<title>CURS&#45;&#45;CURS_títol</title>
<path fill="none" stroke="black" d="M149.71,-243.27C157.13,-239.42 164.99,-235.35 171.82,-231.81"/>
</g>
<!-- INSTRUCTOR -->
<g id="node3" class="node">
<title>INSTRUCTOR</title>
<polygon fill="none" stroke="black" points="112.22,-36 6.22,-36 6.22,0 112.22,0 112.22,-36"/>
<text text-anchor="middle" x="59.22" y="-12.57" font-family="Times New Roman,serif" font-size="14.00">INSTRUCTOR</text>
</g>
<!-- MATRÍCULA -->
<g id="node8" class="node">
<title>MATRÍCULA</title>
<polygon fill="lightgrey" stroke="black" points="172.52,-395.63 79.84,-377.63 172.52,-359.63 265.2,-377.63 172.52,-395.63"/>
<text text-anchor="middle" x="172.52" y="-372.2" font-family="Times New Roman,serif" font-size="14.00">MATRÍCULA</text>
</g>
<!-- MATRÍCULA&#45;&#45;ESTUDIANT -->
<g id="edge5" class="edge">
<title>MATRÍCULA&#45;&#45;ESTUDIANT</title>
<path fill="none" stroke="black" d="M180.36,-394.48C190.18,-415.59 206.94,-451.61 217.1,-473.43"/>
<text text-anchor="middle" x="186.36" y="-436.4" font-family="Times New Roman,serif" font-size="14.00">N:M</text>
</g>
<!-- MATRÍCULA&#45;&#45;CURS -->
<g id="edge6" class="edge">
<title>MATRÍCULA&#45;&#45;CURS</title>
<path fill="none" stroke="black" d="M165.44,-360.66C156.09,-338.28 139.7,-299.01 130.05,-275.91"/>
<text text-anchor="middle" x="135.37" y="-320.74" font-family="Times New Roman,serif" font-size="14.00">N:M</text>
</g>
<!-- IMPARTIR -->
<g id="node9" class="node">
<title>IMPARTIR</title>
<polygon fill="lightgrey" stroke="black" points="78.57,-152.23 0,-134.23 78.57,-116.23 157.13,-134.23 78.57,-152.23"/>
<text text-anchor="middle" x="78.57" y="-128.81" font-family="Times New Roman,serif" font-size="14.00">IMPARTIR</text>
</g>
<!-- IMPARTIR&#45;&#45;CURS -->
<g id="edge8" class="edge">
<title>IMPARTIR&#45;&#45;CURS</title>
<path fill="none" stroke="black" d="M84.56,-151.11C92.76,-174.18 107.4,-215.4 115.85,-239.18"/>
<text text-anchor="middle" x="90.46" y="-197.6" font-family="Times New Roman,serif" font-size="14.00">N:1</text>
</g>
<!-- IMPARTIR&#45;&#45;INSTRUCTOR -->
<g id="edge7" class="edge">
<title>IMPARTIR&#45;&#45;INSTRUCTOR</title>
<path fill="none" stroke="black" d="M75.63,-116.58C72.01,-94.86 65.91,-58.17 62.25,-36.2"/>
<text text-anchor="middle" x="59.19" y="-78.84" font-family="Times New Roman,serif" font-size="14.00">1:N</text>
</g>
</g>
</svg>
<?xml version="1.0" encoding="UTF-8" standalone="no"?>
<!DOCTYPE svg PUBLIC "-//W3C//DTD SVG 1.1//EN"
 "http://www.w3.org/Graphics/SVG/1.1/DTD/svg11.dtd">
<!-- Generated by graphviz version 8.1.0 (20230707.0739)
 -->
<!-- Pages: 1 -->
<svg width="8pt" height="8pt"
 viewBox="0.00 0.00 8.00 8.00" xmlns="http://www.w3.org/2000/svg" xmlns:xlink="http://www.w3.org/1999/xlink">
<g id="page0,1_graph0" class="graph" transform="scale(1 1) rotate(0) translate(4 4)">
<polygon fill="white" stroke="none" points="-4,4 -4,-4 4,-4 4,4 -4,4"/>
</g>
</svg>
