<?xml version="1.0" encoding="UTF-8" standalone="no"?>
<!DOCTYPE svg PUBLIC "-//W3C//DTD SVG 1.1//EN"
 "http://www.w3.org/Graphics/SVG/1.1/DTD/svg11.dtd">
<!-- Generated by graphviz version 8.1.0 (20230707.0739)
 -->
<!-- Title: ConceptualModel Pages: 1 -->
<svg width="321pt" height="477pt"
 viewBox="0.00 0.00 321.47 476.87" xmlns="http://www.w3.org/2000/svg" xmlns:xlink="http://www.w3.org/1999/xlink">
<g id="graph0" class="graph" transform="scale(1 1) rotate(0) translate(4 472.87)">
<title>ConceptualModel</title>
<polygon fill="white" stroke="none" points="-4,4 -4,-472.87 317.47,-472.87 317.47,4 -4,4"/>
<!-- STUDENT -->
<g id="node1" class="node">
<title>STUDENT</title>
<polygon fill="none" stroke="black" points="172.38,-402.01 92.63,-402.01 92.63,-366.01 172.38,-366.01 172.38,-402.01"/>
<text text-anchor="middle" x="132.51" y="-378.58" font-family="Times New Roman,serif" font-size="14.00">STUDENT</text>
</g>
<!-- STUDENT_ID -->
<g id="node4" class="node">
<title>STUDENT_ID</title>
<ellipse fill="none" stroke="black" cx="101.28" cy="-455.25" rx="21.39" ry="13.61"/>
<text text-anchor="start" x="94.16" y="-452.38" font-family="Times New Roman,serif" font-size="10.00"> </text>
<text text-anchor="start" x="96.41" y="-452.38" font-family="Times New Roman,serif" text-decoration="underline" font-size="10.00">ID</text>
<text text-anchor="start" x="106.16" y="-452.38" font-family="Times New Roman,serif" font-size="10.00"> </text>
</g>
<!-- STUDENT&#45;&#45;STUDENT_ID -->
<g id="edge1" class="edge">
<title>STUDENT&#45;&#45;STUDENT_ID</title>
<path fill="none" stroke="black" d="M124.47,-402.35C119.04,-414.72 112.02,-430.76 107.13,-441.92"/>
</g>
<!-- STUDENT_Name -->
<g id="node5" class="node">
<title>STUDENT_Name</title>
<ellipse fill="none" stroke="black" cx="190.27" cy="-445.35" rx="30.41" ry="13.61"/>
<text text-anchor="start" x="176.77" y="-441.48" font-family="Times New Roman,serif" font-size="10.00"> Name </text>
</g>
<!-- STUDENT&#45;&#45;STUDENT_Name -->
<g id="edge2" class="edge">
<title>STUDENT&#45;&#45;STUDENT_Name</title>
<path fill="none" stroke="black" d="M149.84,-402.41C159.01,-412.15 170.04,-423.87 178.26,-432.6"/>
</g>
<!-- STUDENT_DateOfBirth -->
<g id="node6" class="node">
<title>STUDENT_DateOfBirth</title>
<ellipse fill="none" stroke="black" cx="48.44" cy="-382.93" rx="48.44" ry="13.61"/>
<text text-anchor="start" x="22.19" y="-379.06" font-family="Times New Roman,serif" font-size="10.00"> DateOfBirth </text>
</g>
<!-- STUDENT&#45;&#45;STUDENT_DateOfBirth -->
<g id="edge3" class="edge">
<title>STUDENT&#45;&#45;STUDENT_DateOfBirth</title>
<path fill="none" stroke="black" d="M92.44,-383.49C92.36,-383.49 92.27,-383.49 92.19,-383.49"/>
</g>
<!-- SUBJECT -->
<g id="node2" class="node">
<title>SUBJECT</title>
<polygon fill="none" stroke="black" points="243.67,-252.6 168.42,-252.6 168.42,-216.6 243.67,-216.6 243.67,-252.6"/>
<text text-anchor="middle" x="206.04" y="-229.17" font-family="Times New Roman,serif" font-size="14.00">SUBJECT</text>
</g>
<!-- SUBJECT_Code -->
<g id="node7" class="node">
<title>SUBJECT_Code</title>
<ellipse fill="none" stroke="black" cx="276.23" cy="-278.51" rx="29.34" ry="13.61"/>
<text text-anchor="start" x="263.48" y="-275.63" font-family="Times New Roman,serif" font-size="10.00"> </text>
<text text-anchor="start" x="265.73" y="-275.63" font-family="Times New Roman,serif" text-decoration="underline" font-size="10.00">Code</text>
<text text-anchor="start" x="286.73" y="-275.63" font-family="Times New Roman,serif" font-size="10.00"> </text>
</g>
<!-- SUBJECT&#45;&#45;SUBJECT_Code -->
<g id="edge4" class="edge">
<title>SUBJECT&#45;&#45;SUBJECT_Code</title>
<path fill="none" stroke="black" d="M235.4,-252.97C243.21,-257.86 251.42,-262.99 258.4,-267.36"/>
</g>
<!-- SUBJECT_Title -->
<g id="node8" class="node">
<title>SUBJECT_Title</title>
<ellipse fill="none" stroke="black" cx="286.24" cy="-217.61" rx="27.22" ry="13.61"/>
<text text-anchor="start" x="274.99" y="-213.73" font-family="Times New Roman,serif" font-size="10.00"> Title </text>
</g>
<!-- SUBJECT&#45;&#45;SUBJECT_Title -->
<g id="edge5" class="edge">
<title>SUBJECT&#45;&#45;SUBJECT_Title</title>
<path fill="none" stroke="black" d="M243.79,-226.6C249.64,-225.36 255.56,-224.11 261.05,-222.94"/>
</g>
<!-- SUBJECT_Credits -->
<g id="node9" class="node">
<title>SUBJECT_Credits</title>
<ellipse fill="none" stroke="black" cx="128.43" cy="-212.25" rx="34.65" ry="13.61"/>
<text text-anchor="start" x="111.93" y="-208.38" font-family="Times New Roman,serif" font-size="10.00"> Credits </text>
</g>
<!-- SUBJECT&#45;&#45;SUBJECT_Credits -->
<g id="edge6" class="edge">
<title>SUBJECT&#45;&#45;SUBJECT_Credits</title>
<path fill="none" stroke="black" d="M168.15,-223.69C164.3,-222.58 160.44,-221.47 156.72,-220.4"/>
</g>
<!-- PROFESSOR -->
<g id="node3" class="node">
<title>PROFESSOR</title>
<polygon fill="none" stroke="black" points="253.58,-87.93 155.83,-87.93 155.83,-51.93 253.58,-51.93 253.58,-87.93"/>
<text text-anchor="middle" x="204.7" y="-64.5" font-family="Times New Roman,serif" font-size="14.00">PROFESSOR</text>
</g>
<!-- PROFESSOR_ID -->
<g id="node10" class="node">
<title>PROFESSOR_ID</title>
<ellipse fill="none" stroke="black" cx="147.89" cy="-13.61" rx="21.39" ry="13.61"/>
<text text-anchor="start" x="140.77" y="-10.74" font-family="Times New Roman,serif" font-size="10.00"> </text>
<text text-anchor="start" x="143.02" y="-10.74" font-family="Times New Roman,serif" text-decoration="underline" font-size="10.00">ID</text>
<text text-anchor="start" x="152.77" y="-10.74" font-family="Times New Roman,serif" font-size="10.00"> </text>
</g>
<!-- PROFESSOR&#45;&#45;PROFESSOR_ID -->
<g id="edge7" class="edge">
<title>PROFESSOR&#45;&#45;PROFESSOR_ID</title>
<path fill="none" stroke="black" d="M186.1,-51.49C177.43,-42.89 167.37,-32.92 159.75,-25.36"/>
</g>
<!-- PROFESSOR_Name -->
<g id="node11" class="node">
<title>PROFESSOR_Name</title>
<ellipse fill="none" stroke="black" cx="266.76" cy="-19.16" rx="30.41" ry="13.61"/>
<text text-anchor="start" x="253.26" y="-15.28" font-family="Times New Roman,serif" font-size="10.00"> Name </text>
</g>
<!-- PROFESSOR&#45;&#45;PROFESSOR_Name -->
<g id="edge8" class="edge">
<title>PROFESSOR&#45;&#45;PROFESSOR_Name</title>
<path fill="none" stroke="black" d="M227.1,-51.6C235.3,-44.9 244.36,-37.48 251.76,-31.43"/>
</g>
<!-- ENROLLED -->
<g id="node12" class="node">
<title>ENROLLED</title>
<polygon fill="lightgrey" stroke="black" points="166.93,-327.64 83.42,-309.64 166.93,-291.64 250.44,-309.64 166.93,-327.64"/>
<text text-anchor="middle" x="166.93" y="-304.22" font-family="Times New Roman,serif" font-size="14.00">ENROLLED</text>
</g>
<!-- ENROLLED&#45;&#45;STUDENT -->
<g id="edge9" class="edge">
<title>ENROLLED&#45;&#45;STUDENT</title>
<path fill="none" stroke="black" d="M159.29,-326.15C153.86,-337.87 146.57,-353.62 140.97,-365.72"/>
<text text-anchor="middle" x="145.26" y="-348.38" font-family="Times New Roman,serif" font-size="14.00">N</text>
</g>
<!-- ENROLLED&#45;&#45;SUBJECT -->
<g id="edge10" class="edge">
<title>ENROLLED&#45;&#45;SUBJECT</title>
<path fill="none" stroke="black" d="M175.42,-293.36C181.62,-281.46 190.03,-265.32 196.47,-252.96"/>
<text text-anchor="middle" x="181.07" y="-275.61" font-family="Times New Roman,serif" font-size="14.00">N</text>
</g>
<!-- TEACHES -->
<g id="node13" class="node">
<title>TEACHES</title>
<polygon fill="lightgrey" stroke="black" points="203.21,-168.28 128.88,-150.28 203.21,-132.28 277.54,-150.28 203.21,-168.28"/>
<text text-anchor="middle" x="203.21" y="-144.85" font-family="Times New Roman,serif" font-size="14.00">TEACHES</text>
</g>
<!-- TEACHES&#45;&#45;SUBJECT -->
<g id="edge12" class="edge">
<title>TEACHES&#45;&#45;SUBJECT</title>
<path fill="none" stroke="black" d="M203.82,-168.58C204.3,-182.72 204.95,-202.2 205.43,-216.34"/>
<text text-anchor="middle" x="199.75" y="-194.91" font-family="Times New Roman,serif" font-size="14.00">N</text>
</g>
<!-- TEACHES&#45;&#45;PROFESSOR -->
<g id="edge11" class="edge">
<title>TEACHES&#45;&#45;PROFESSOR</title>
<path fill="none" stroke="black" d="M203.55,-132.05C203.79,-118.99 204.11,-101.47 204.36,-88.37"/>
<text text-anchor="middle" x="200.58" y="-112.66" font-family="Times New Roman,serif" font-size="14.00">1</text>
</g>
</g>
</svg>
<?xml version="1.0" encoding="UTF-8" standalone="no"?>
<!DOCTYPE svg PUBLIC "-//W3C//DTD SVG 1.1//EN"
 "http://www.w3.org/Graphics/SVG/1.1/DTD/svg11.dtd">
<!-- Generated by graphviz version 8.1.0 (20230707.0739)
 -->
<!-- Pages: 1 -->
<svg width="8pt" height="8pt"
 viewBox="0.00 0.00 8.00 8.00" xmlns="http://www.w3.org/2000/svg" xmlns:xlink="http://www.w3.org/1999/xlink">
<g id="page0,1_graph0" class="graph" transform="scale(1 1) rotate(0) translate(4 4)">
<polygon fill="white" stroke="none" points="-4,4 -4,-4 4,-4 4,4 -4,4"/>
</g>
</svg>
